# xmcd
#
# Track frame offsets: 
#        150
#        18683
#        36743
#        51347
#        63945
#        83749
#        95538
#        117127
#        138034
#        168658
#
# Disc length: 2584 seconds
#
# Revision: 1
# Processed by: cddbd v1.5.2PL0 Copyright (c) Steve Scherf et al.
# Submitted via: ExactAudioCopy v0.95b4
#
DISCID=870a160a
DTITLE=Santana - Santana
DYEAR=1969
DGENRE=Fusion
TTITLE0=Waiting
TTITLE1=Evil Ways
TTITLE2=Shades Of Time
TTITLE3=Savor
TTITLE4=Jingo
TTITLE5=Persuasion
TTITLE6=Treat
TTITLE7=You Just Don't Care
TTITLE8=Soul Sacrifice
TTITLE9=Taboo [bonus track]
EXTD=
EXTT0=
EXTT1=
EXTT2=
EXTT3=
EXTT4=
EXTT5=
EXTT6=
EXTT7=
EXTT8=
EXTT9=
PLAYORDER=
